<?xml version="1.0" standalone="no"?>
<?xml-stylesheet type="text/css" href="../style.css"?>
<!DOCTYPE svg PUBLIC "-//W3C//DTD SVG 20010904//EN"
 "http://www.w3.org/TR/2001/REC-SVG-20010904/DTD/svg10.dtd">
<svg version="1.0" xmlns="http://www.w3.org/2000/svg"
 width="2048.000000pt" height="2048.000000pt" viewBox="0 0 2048.000000 2048.000000"
 preserveAspectRatio="xMidYMid meet">

<g transform="translate(0.000000,2048.000000) scale(0.100000,-0.100000)"
fill="#000000" stroke="none" class="isolate">
<path d="M14415 16431 c-27 -4 -59 -12 -70 -18 -11 -6 -42 -22 -70 -34 -105
-47 -324 -298 -342 -391 -3 -18 -12 -45 -19 -60 -8 -15 -14 -42 -14 -60 0 -18
-7 -46 -15 -62 -19 -37 -22 -434 -3 -469 6 -12 18 -65 25 -117 33 -235 42
-291 62 -380 11 -52 25 -120 31 -150 5 -30 17 -86 25 -125 9 -38 19 -90 24
-115 4 -25 13 -55 19 -67 7 -12 12 -38 12 -58 0 -19 9 -61 20 -92 11 -32 20
-68 20 -81 0 -14 7 -45 15 -71 8 -25 19 -73 26 -106 6 -33 16 -71 21 -85 12
-30 34 -118 54 -219 14 -74 24 -110 50 -184 8 -20 14 -48 14 -61 0 -13 6 -39
14 -57 7 -19 17 -61 21 -94 3 -33 12 -69 19 -80 7 -11 16 -33 19 -50 10 -56
79 -320 102 -396 8 -26 15 -58 15 -73 0 -14 6 -40 14 -58 8 -18 19 -53 26 -78
6 -25 18 -67 25 -95 46 -168 55 -206 55 -235 0 -61 -31 -29 -97 99 -35 69 -70
132 -78 141 -8 9 -20 32 -27 50 -6 19 -23 52 -37 74 -47 73 -51 81 -63 106 -7
14 -17 32 -24 40 -7 8 -26 43 -43 76 -17 34 -38 67 -46 74 -8 7 -15 20 -16 29
0 9 -14 36 -30 61 -16 25 -36 59 -44 77 -8 17 -20 35 -26 39 -6 3 -17 21 -25
38 -14 32 -87 148 -160 252 -22 33 -56 82 -74 109 -18 28 -113 129 -209 226
-169 168 -179 177 -256 208 -44 18 -105 38 -135 44 -93 18 -273 10 -305 -13
-5 -4 -28 -13 -50 -20 -57 -18 -80 -35 -163 -115 -79 -76 -143 -160 -166 -221
-14 -35 -20 -62 -46 -199 -4 -22 -12 -53 -19 -68 -16 -41 -15 -441 1 -470 7
-12 16 -65 20 -117 3 -52 14 -160 23 -240 9 -80 20 -190 24 -245 4 -55 13
-113 19 -130 10 -29 19 -88 47 -325 7 -63 18 -135 24 -160 5 -25 10 -64 11
-87 0 -23 4 -52 10 -65 5 -13 14 -61 20 -108 6 -47 17 -125 26 -175 8 -49 18
-117 22 -150 4 -33 13 -69 19 -80 6 -11 14 -67 18 -125 4 -58 13 -117 21 -132
8 -15 14 -56 14 -93 0 -37 5 -76 12 -88 19 -33 45 -255 34 -284 -10 -25 -39 8
-70 80 -15 34 -31 69 -37 77 -5 8 -14 26 -21 40 -24 54 -51 107 -78 155 -16
28 -59 111 -96 185 -37 74 -87 167 -110 206 -23 38 -54 97 -69 130 -14 32 -30
66 -35 74 -6 8 -20 35 -33 60 -13 25 -43 79 -67 120 -25 41 -52 89 -62 105
-10 17 -30 53 -44 80 -14 28 -32 57 -39 65 -7 8 -21 35 -31 59 -9 23 -30 57
-46 74 -15 17 -31 41 -34 52 -10 32 -85 156 -126 209 -21 27 -38 53 -38 58 0
6 -9 22 -21 36 -11 15 -42 61 -69 104 -27 42 -54 79 -60 83 -6 4 -22 25 -37
48 -45 72 -342 383 -448 470 -38 30 -176 117 -188 117 -5 0 -23 6 -40 13 -18
8 -48 19 -67 26 -46 17 -330 26 -395 13 -90 -18 -183 -57 -256 -107 -58 -40
-216 -198 -250 -250 -14 -22 -50 -78 -79 -125 -30 -47 -59 -89 -64 -95 -15
-13 -96 -180 -96 -195 0 -7 -11 -33 -24 -59 -14 -25 -34 -71 -46 -101 -21 -55
-32 -80 -64 -153 -9 -21 -16 -47 -16 -57 0 -11 -18 -62 -39 -113 -22 -50 -43
-110 -47 -132 -3 -22 -13 -52 -20 -67 -8 -15 -14 -36 -14 -47 0 -11 -6 -32
-14 -48 -8 -15 -24 -64 -36 -108 -12 -44 -27 -91 -33 -105 -5 -14 -13 -41 -17
-60 -34 -152 -123 -374 -156 -387 -7 -2 -39 12 -71 33 -126 80 -360 191 -588
277 -125 47 -202 71 -330 101 -60 15 -139 35 -175 46 -76 22 -136 32 -395 65
-228 30 -470 33 -650 10 -245 -32 -398 -57 -438 -71 -23 -9 -62 -19 -87 -24
-260 -51 -561 -159 -865 -312 -114 -57 -310 -172 -341 -199 -11 -11 -24 -19
-27 -19 -18 0 -228 -153 -373 -271 -85 -69 -359 -350 -440 -450 -69 -85 -145
-184 -159 -208 -5 -9 -20 -31 -32 -48 -13 -17 -23 -36 -23 -41 0 -5 -6 -12
-13 -15 -7 -2 -26 -29 -42 -58 -16 -30 -40 -66 -54 -80 -33 -33 -131 -210
-131 -236 0 -12 -7 -26 -15 -33 -8 -7 -15 -23 -15 -36 0 -12 -9 -29 -20 -37
-28 -20 -82 -145 -161 -377 -49 -144 -89 -282 -89 -310 0 -12 -6 -42 -14 -68
-8 -26 -19 -78 -25 -117 -7 -38 -16 -92 -21 -120 -4 -27 -13 -78 -19 -112 -56
-312 -40 -800 39 -1167 37 -175 49 -222 89 -356 131 -437 379 -910 656 -1249
33 -41 77 -97 99 -125 117 -156 489 -488 706 -632 24 -16 53 -36 65 -44 76
-53 124 -81 235 -141 69 -37 154 -83 188 -103 35 -20 68 -36 74 -36 6 0 38
-13 72 -29 99 -47 287 -116 464 -171 117 -37 288 -70 642 -126 160 -25 576
-26 735 -1 61 10 155 24 210 33 400 60 817 203 1189 408 65 37 120 66 123 66
2 0 16 8 31 19 15 10 77 51 137 91 328 218 593 465 876 815 213 263 467 731
580 1065 10 30 25 75 35 100 24 66 64 215 79 297 8 40 19 89 24 110 6 21 11
53 11 71 0 18 4 41 9 50 27 51 66 491 58 655 -8 155 -35 420 -49 472 -6 22
-14 63 -18 90 -13 85 -39 207 -56 270 -27 100 -54 188 -68 225 -7 19 -19 53
-26 75 -17 56 -77 209 -111 281 -15 33 -46 99 -67 145 -44 93 -204 373 -231
404 -10 11 -41 54 -70 95 -28 41 -65 93 -82 115 l-30 39 7 176 c5 136 12 196
31 270 14 52 28 111 33 130 19 81 73 279 88 325 24 71 36 114 48 170 7 33 25
96 39 140 15 44 33 98 40 120 8 22 27 80 44 129 17 49 31 95 31 103 0 7 14 40
30 73 17 33 30 67 30 76 0 26 63 154 76 154 16 0 204 -241 204 -263 0 -3 15
-27 33 -54 17 -26 48 -75 67 -107 19 -32 45 -70 56 -84 12 -15 34 -52 49 -82
15 -30 37 -68 49 -85 13 -16 28 -45 34 -62 6 -18 22 -48 35 -65 14 -18 39 -64
56 -103 18 -38 38 -77 47 -86 18 -20 43 -66 119 -219 32 -63 68 -128 80 -145
12 -16 32 -56 44 -87 12 -31 34 -71 47 -89 13 -18 24 -39 24 -46 0 -14 23 -61
64 -128 14 -22 124 -239 246 -483 122 -243 234 -459 247 -480 14 -20 32 -54
39 -76 8 -21 28 -61 44 -88 17 -26 30 -52 30 -57 0 -10 34 -73 92 -171 24 -41
57 -100 72 -130 15 -30 36 -68 47 -85 10 -16 37 -64 59 -105 23 -41 59 -102
80 -135 22 -33 54 -85 71 -115 18 -30 38 -58 45 -62 7 -5 24 -29 40 -55 63
-108 174 -231 238 -264 21 -12 57 -34 79 -50 47 -34 98 -58 177 -83 66 -21
282 -19 340 3 145 54 247 133 323 249 39 59 55 95 107 242 27 77 32 171 27
521 -4 300 -8 361 -21 387 -12 22 -16 59 -16 132 0 57 -5 111 -11 123 -11 20
-17 61 -38 287 -4 47 -13 99 -19 115 -6 17 -16 71 -22 120 -7 50 -16 113 -20
140 -5 28 -9 78 -9 112 -1 34 -6 74 -12 90 -14 35 -24 96 -50 283 -10 80 -23
168 -29 195 -25 133 -40 228 -50 310 -6 50 -16 115 -21 145 -6 30 -14 80 -19
110 -4 30 -13 69 -20 86 -16 46 -9 169 10 169 13 0 103 -159 169 -300 10 -22
28 -49 40 -59 11 -11 21 -24 21 -29 0 -13 96 -209 125 -257 12 -19 66 -120
120 -225 53 -104 101 -195 106 -201 11 -13 41 -69 124 -229 34 -66 72 -138 85
-160 56 -95 103 -183 122 -227 11 -26 28 -54 39 -64 10 -9 19 -25 19 -34 0
-10 15 -40 33 -66 19 -27 42 -63 51 -79 9 -17 28 -48 41 -70 13 -22 28 -49 34
-61 5 -11 28 -49 50 -84 23 -35 41 -68 41 -73 0 -6 11 -24 24 -42 13 -17 62
-88 109 -157 105 -157 118 -175 192 -255 55 -60 155 -134 215 -160 118 -50
175 -63 288 -63 80 0 108 5 157 25 33 14 64 25 69 25 5 0 35 21 65 48 31 26
73 60 94 76 21 15 42 39 48 53 5 13 21 39 35 58 14 18 37 64 51 102 23 62 26
85 30 253 3 113 0 220 -7 275 -6 50 -17 144 -24 210 -6 66 -17 129 -23 140 -5
11 -13 36 -16 55 -10 59 -36 191 -52 265 -9 39 -22 102 -29 142 -8 40 -17 77
-21 82 -3 6 -10 32 -15 59 -9 48 -27 127 -55 242 -8 36 -19 83 -24 105 -5 22
-14 54 -19 70 -23 65 -42 143 -51 205 -5 36 -19 89 -30 117 -12 29 -28 91 -36
138 -8 47 -19 94 -25 105 -5 10 -10 32 -10 47 0 16 -4 33 -8 38 -10 12 -32 85
-42 140 -8 44 -32 141 -55 220 -7 28 -21 79 -31 115 -33 128 -46 175 -55 206
-5 17 -9 42 -9 55 0 14 -4 29 -9 34 -13 13 -61 195 -61 230 0 14 -6 38 -14 54
-8 15 -33 104 -56 197 -22 93 -45 180 -49 194 -14 41 -50 183 -82 320 -12 52
-28 109 -35 127 -8 17 -14 38 -14 46 0 8 -6 30 -14 48 -8 19 -17 61 -21 94 -3
33 -17 89 -30 125 -13 36 -31 101 -40 145 -8 44 -20 94 -26 110 -6 17 -15 46
-19 65 -4 19 -15 64 -23 100 -9 36 -28 117 -42 180 -14 63 -33 132 -41 153 -8
20 -14 53 -14 72 0 19 -6 52 -14 72 -18 52 -36 125 -51 208 -7 39 -18 84 -23
100 -19 53 -35 142 -28 154 4 6 14 11 23 11 9 0 109 -92 223 -205 114 -113
213 -205 219 -205 7 0 27 -11 44 -24 18 -13 59 -36 92 -51 54 -25 72 -27 185
-28 180 -1 261 30 376 141 43 43 73 84 105 147 l44 88 -1 146 -1 146 -42 80
c-25 46 -70 108 -105 145 -34 36 -71 76 -81 90 -42 53 -544 514 -634 582 -107
81 -189 140 -221 158 -19 12 -53 31 -75 44 -65 39 -120 66 -134 66 -6 0 -49
18 -94 41 l-82 40 -200 4 c-110 2 -222 0 -250 -4z m-6760 -5401 c175 -16 269
-28 295 -38 14 -5 46 -12 72 -16 53 -8 64 -18 46 -38 -7 -7 -48 -54 -92 -103
-153 -176 -143 -167 -178 -149 -18 9 -53 32 -80 50 -26 19 -50 34 -53 34 -3 0
-29 15 -58 33 -64 41 -145 85 -312 172 -71 37 -132 70 -135 73 -7 7 372 -7
495 -18z m-918 -71 c200 -94 437 -212 566 -283 76 -42 140 -76 142 -76 5 0 75
-46 91 -59 6 -5 24 -16 40 -25 75 -41 75 -39 -2 -114 -153 -151 -392 -351
-625 -524 -101 -74 -377 -261 -418 -283 l-33 -16 -141 94 c-293 195 -512 332
-872 547 -132 79 -244 147 -250 152 -11 10 3 23 112 98 329 227 712 393 1128
488 104 24 169 39 172 41 2 1 42 -17 90 -40z m1727 -104 c17 -7 58 -23 91 -35
172 -64 384 -168 565 -280 120 -73 400 -274 400 -286 0 -14 -487 -604 -498
-604 -5 0 -78 71 -163 158 -155 157 -339 331 -403 381 -18 14 -62 50 -97 78
-119 97 -196 158 -252 198 -31 22 -56 45 -56 50 0 6 61 78 135 160 75 83 145
163 157 178 19 24 26 27 55 22 19 -3 48 -12 66 -20z m-508 -602 c163 -123 295
-231 459 -377 142 -127 425 -417 425 -436 0 -8 -17 -33 -38 -55 -21 -22 -104
-112 -184 -200 -281 -308 -489 -497 -800 -730 l-40 -30 -25 30 c-170 203 -534
569 -713 715 -57 47 -122 101 -146 122 -24 20 -68 53 -98 75 -31 21 -55 41
-53 45 1 3 58 43 127 88 317 210 670 496 900 731 47 48 88 88 91 88 3 1 46
-29 95 -66z m-2858 -110 c202 -117 652 -389 772 -466 193 -123 370 -241 370
-247 0 -3 -73 -42 -162 -87 -258 -128 -612 -269 -872 -348 -206 -62 -173 -63
-290 13 -57 37 -111 72 -122 79 -10 6 -86 54 -169 105 -82 52 -185 116 -227
142 -43 26 -78 51 -78 54 0 10 83 143 138 222 48 68 64 89 165 210 64 78 360
380 372 380 3 0 50 -25 103 -57z m4696 -134 c32 -34 65 -73 74 -88 9 -14 34
-44 56 -66 21 -22 57 -65 79 -95 23 -30 47 -61 53 -68 22 -22 200 -294 253
-387 28 -49 50 -95 49 -102 -3 -11 -120 -162 -288 -370 -47 -58 -99 -124 -117
-147 -97 -123 -119 -150 -128 -152 -5 -2 -41 50 -79 114 -71 120 -242 381
-299 457 -18 24 -39 53 -47 65 -31 46 -180 239 -190 245 -24 15 -16 27 133
199 28 32 63 73 77 91 25 32 251 313 280 347 8 10 20 18 26 18 7 0 37 -27 68
-61z m-3220 -806 c95 -66 131 -94 286 -225 175 -147 612 -583 681 -679 17 -25
18 -27 1 -42 -56 -49 -402 -256 -608 -363 -133 -69 -435 -204 -458 -204 -7 0
-62 55 -123 123 -115 126 -395 406 -519 518 -90 82 -295 248 -360 291 -95 65
-165 121 -157 128 4 4 64 26 132 49 150 51 351 128 481 184 110 48 519 252
534 267 16 16 25 13 110 -47z m2561 -115 c135 -179 292 -416 412 -622 51 -87
93 -160 93 -161 0 -2 -34 -43 -76 -92 -462 -532 -650 -726 -923 -952 l-64 -52
-63 121 c-56 107 -130 239 -196 350 -53 88 -252 383 -307 455 l-62 80 34 30
c19 17 49 41 68 55 270 201 612 528 903 863 32 37 62 67 66 67 5 0 57 -64 115
-142z m-4867 16 c98 -58 97 -57 216 -133 55 -35 118 -75 140 -89 49 -31 46
-32 -109 -56 -60 -10 -132 -21 -160 -26 -79 -14 -315 -34 -321 -27 -10 10 21
96 88 242 35 74 64 135 66 135 1 0 37 -21 80 -46z m6257 -264 c59 -135 112
-314 141 -470 8 -41 16 -82 19 -90 7 -18 21 -113 40 -285 15 -136 20 -649 6
-755 -6 -47 -19 -74 -96 -188 -50 -74 -101 -151 -115 -173 -14 -21 -30 -39
-37 -39 -7 0 -22 33 -33 73 -28 97 -149 477 -160 502 -5 11 -20 54 -33 95 -52
154 -190 513 -244 630 -56 122 -57 127 -36 154 10 13 115 144 234 292 118 148
226 284 239 302 13 18 28 31 33 29 5 -1 24 -36 42 -77z m-5431 -268 c157 -110
170 -119 266 -191 178 -135 322 -263 545 -486 127 -126 245 -249 263 -272 l32
-41 -77 -25 c-192 -62 -243 -77 -315 -96 -43 -12 -112 -30 -153 -41 -91 -24
-345 -76 -440 -89 -194 -28 -630 -64 -660 -55 -11 4 -49 34 -85 68 -103 96
-252 216 -397 318 -33 24 -102 72 -153 108 l-92 65 5 50 c5 56 23 194 39 300
5 39 19 106 30 150 11 44 22 94 25 112 3 18 10 37 17 42 6 5 70 15 141 21 367
32 559 61 780 119 39 10 81 19 94 20 14 1 65 -28 135 -77z m2703 -589 c170
-226 341 -500 481 -770 46 -90 81 -167 78 -172 -11 -18 -280 -205 -426 -296
-207 -130 -601 -340 -623 -332 -6 2 -33 48 -61 103 -166 321 -399 693 -566
904 -17 21 -30 42 -30 46 0 5 37 24 83 43 252 105 668 333 937 514 30 20 58
37 61 37 4 0 34 -35 66 -77z m2055 -143 c36 -91 78 -199 93 -240 15 -41 31
-84 36 -95 25 -59 286 -873 294 -920 5 -27 -5 -43 -96 -150 -94 -109 -481
-504 -589 -601 -122 -109 -440 -364 -454 -364 -2 0 -10 26 -16 58 -7 31 -20
95 -30 142 -10 47 -26 121 -35 165 -88 416 -184 721 -329 1048 -14 32 -26 64
-26 71 0 7 35 42 77 77 96 79 281 245 349 313 109 109 480 512 588 640 44 52
49 56 61 39 7 -10 41 -92 77 -183z m-5957 -372 c33 -23 107 -78 164 -122 123
-96 125 -94 -82 -95 -102 -1 -139 2 -141 12 -8 25 -16 247 -9 247 4 0 34 -19
68 -42z m2509 -122 c125 -159 279 -378 366 -521 124 -203 280 -491 280 -517 0
-8 -25 -23 -57 -35 -226 -82 -305 -109 -447 -153 -136 -41 -352 -99 -522 -140
-61 -14 -353 -55 -357 -50 -2 3 -55 84 -119 180 -119 180 -232 335 -347 475
-62 77 -203 239 -225 260 -61 58 -155 168 -151 175 4 6 23 10 45 10 32 0 207
18 325 34 224 29 391 65 705 150 76 20 334 101 400 125 66 24 89 26 104 7z
m-1763 -534 c198 -203 332 -357 481 -553 97 -128 251 -350 246 -354 -21 -20
-1073 -62 -1094 -44 -12 10 -164 310 -164 323 0 3 -13 34 -28 68 -30 64 -70
178 -92 258 -6 25 -18 63 -25 85 -7 22 -18 60 -24 85 -7 25 -16 59 -22 75 -11
39 -29 126 -38 187 l-7 48 225 3 c124 1 256 3 292 5 l67 2 183 -188z m3896
-158 c67 -161 131 -352 173 -514 18 -69 38 -147 46 -175 52 -189 141 -668 125
-673 -6 -2 -26 -14 -45 -27 -40 -27 -189 -115 -286 -169 -222 -124 -710 -349
-725 -334 -2 2 -11 42 -20 88 -34 177 -100 470 -121 538 -8 23 -14 49 -14 57
0 39 -143 457 -195 570 -21 46 -55 135 -55 145 0 5 78 48 173 96 312 157 611
339 826 501 25 18 49 32 55 30 5 -2 34 -62 63 -133z m1857 -483 c23 -103 21
-119 -30 -201 -25 -41 -57 -97 -71 -124 -14 -27 -41 -75 -61 -105 -19 -31 -47
-74 -61 -96 -99 -154 -241 -326 -421 -506 -167 -168 -250 -241 -364 -322 -44
-32 -91 -67 -102 -78 -12 -11 -24 -16 -28 -11 -3 5 -10 42 -16 83 -6 41 -15
94 -20 119 -6 25 -15 81 -20 125 -6 44 -13 90 -15 102 -4 17 12 33 91 89 307
218 667 541 989 888 54 58 102 106 106 106 4 0 15 -31 23 -69z m-3177 -222
c102 -240 168 -445 237 -729 80 -328 122 -548 109 -560 -15 -13 -453 -128
-583 -153 -14 -2 -104 -20 -200 -40 -222 -44 -332 -64 -396 -72 l-51 -6 -7 33
c-10 51 -99 334 -131 418 -94 243 -214 513 -313 703 -76 144 -76 141 22 151
91 10 349 68 536 121 190 53 543 170 645 213 39 17 74 29 79 28 5 -1 29 -49
53 -107z m-1695 -311 c56 -44 347 -661 445 -942 35 -100 103 -330 103 -347 0
-11 -44 -2 -80 16 -14 7 -56 25 -95 41 -80 32 -285 136 -360 183 -27 17 -60
35 -72 40 -48 22 -316 214 -362 260 -10 10 -38 32 -62 48 -24 17 -58 46 -75
64 -17 19 -49 49 -72 66 -49 40 -214 221 -302 333 -36 45 -82 102 -102 127
-21 24 -38 50 -38 57 0 11 57 15 268 19 268 6 654 28 778 46 5 0 17 -5 26 -11z
m3422 -650 c17 -86 39 -219 50 -308 14 -103 14 -105 -8 -122 -29 -24 -225
-120 -311 -154 -38 -14 -75 -30 -80 -35 -19 -14 -339 -117 -420 -134 -44 -10
-113 -26 -154 -36 -41 -11 -80 -19 -86 -19 -13 0 -23 46 -45 195 -5 39 -13 79
-16 90 -5 19 12 28 158 89 223 94 530 246 728 360 91 53 168 96 172 96 4 0 10
-10 12 -22z m-1319 -610 c14 -62 33 -224 27 -230 -11 -11 -228 -28 -362 -28
-124 0 -367 19 -529 42 l-83 12 53 12 c30 6 79 17 109 23 222 43 625 140 712
171 68 24 67 24 73 -2z"/>
</g>
</svg>
